<?xml version="1.0" encoding="UTF-8"?>
<svg version="1.1" xmlns="http://www.w3.org/2000/svg" width="230" height="230">
<path d="M0 0 C75.9 0 151.8 0 230 0 C230 75.9 230 151.8 230 230 C154.1 230 78.2 230 0 230 C0 154.1 0 78.2 0 0 Z " fill="#F6F3E1" transform="translate(0,0)"/>
<path d="M0 0 C15.51 0 31.02 0 47 0 C51 8 51 8 51 10 C32.85 10 14.7 10 -4 10 C-3 6 -3 6 0 0 Z " fill="#F9F5E3" transform="translate(87,119)"/>
<path d="M0 0 C0.86140091 0.00424484 1.72280182 0.00848969 2.61030579 0.01286316 C5.36161556 0.02965627 8.11219287 0.06730919 10.86328125 0.10546875 C12.72850505 0.12051479 14.59374032 0.13420334 16.45898438 0.14648438 C21.03153223 0.17956182 25.60353255 0.23134815 30.17578125 0.29296875 C30.17578125 0.95296875 30.17578125 1.61296875 30.17578125 2.29296875 C17.30578125 2.62296875 4.43578125 2.95296875 -8.82421875 3.29296875 C-8.82421875 15.50296875 -8.82421875 27.71296875 -8.82421875 40.29296875 C8.00578125 40.29296875 24.83578125 40.29296875 42.17578125 40.29296875 C42.50578125 33.36296875 42.83578125 26.43296875 43.17578125 19.29296875 C43.83578125 19.29296875 44.49578125 19.29296875 45.17578125 19.29296875 C45.26281948 22.73030938 45.31618397 26.16736712 45.36328125 29.60546875 C45.38841797 30.58193359 45.41355469 31.55839844 45.43945312 32.56445312 C45.44912109 33.50224609 45.45878906 34.44003906 45.46875 35.40625 C45.48446045 36.27032471 45.5001709 37.13439941 45.51635742 38.0246582 C45.10234369 40.78207872 44.39280658 41.65004187 42.17578125 43.29296875 C39.6953125 43.5859375 39.6953125 43.5859375 36.98828125 43.48046875 C36.08722656 43.45339844 35.18617188 43.42632812 34.2578125 43.3984375 C33.57074219 43.36363281 32.88367188 43.32882813 32.17578125 43.29296875 C32.83578125 45.27296875 33.49578125 47.25296875 34.17578125 49.29296875 C22.62578125 49.29296875 11.07578125 49.29296875 -0.82421875 49.29296875 C-0.49421875 47.64296875 -0.16421875 45.99296875 0.17578125 44.29296875 C-0.43910156 44.25558594 -1.05398437 44.21820313 -1.6875 44.1796875 C-2.49574219 44.11394531 -3.30398437 44.04820313 -4.13671875 43.98046875 C-5.33748047 43.89345703 -5.33748047 43.89345703 -6.5625 43.8046875 C-9.42243508 43.15762101 -10.14037669 42.70953615 -11.82421875 40.29296875 C-12.12251927 37.45780057 -12.2446043 34.84683951 -12.22265625 32.01171875 C-12.22552643 31.20182495 -12.22839661 30.39193115 -12.23135376 29.55749512 C-12.23339417 27.84610291 -12.22786584 26.13468737 -12.21533203 24.42333984 C-12.19927732 21.80252985 -12.21518069 19.18326198 -12.234375 16.5625 C-12.23239256 14.89973618 -12.22854888 13.23697331 -12.22265625 11.57421875 C-12.22872894 10.78978394 -12.23480164 10.00534912 -12.24105835 9.19714355 C-12.17065451 3.75587899 -12.17065451 3.75587899 -10.54499817 1.58366394 C-7.49297547 -0.7055493 -3.66618913 -0.06777362 0 0 Z " fill="#91908D" transform="translate(93.82421875,64.70703125)"/>
<path d="M0 0 C6.27 0 12.54 0 19 0 C19 8.25 19 16.5 19 25 C12.73 25 6.46 25 0 25 C0 16.75 0 8.5 0 0 Z " fill="#838280" transform="translate(68,145)"/>
<path d="M0 0 C2.76375 -0.04125 5.5275 -0.0825 8.375 -0.125 C9.67896729 -0.15231201 9.67896729 -0.15231201 11.00927734 -0.18017578 C13.00703478 -0.19473738 15.00467217 -0.09956726 17 0 C19.93872655 2.93872655 19.29169002 5.5236662 19.32226562 9.54296875 C19.31904297 10.51878906 19.31582031 11.49460938 19.3125 12.5 C19.32861328 13.47582031 19.34472656 14.45164063 19.36132812 15.45703125 C19.36197266 16.38902344 19.36261719 17.32101563 19.36328125 18.28125 C19.36626221 19.13783203 19.36924316 19.99441406 19.37231445 20.87695312 C19.1880188 21.92786133 19.1880188 21.92786133 19 23 C15.20548348 25.52967768 12.18802503 25.22360092 7.8125 25.125 C3.9453125 25.063125 3.9453125 25.063125 0 25 C0 16.75 0 8.5 0 0 Z " fill="#858482" transform="translate(90,145)"/>
<path d="M0 0 C1.65 0.33 3.3 0.66 5 1 C5 1.99 5 2.98 5 4 C7.31 4 9.62 4 12 4 C12 6.64 12 9.28 12 12 C13.32 12 14.64 12 16 12 C16 13.32 16 14.64 16 16 C14.68 16 13.36 16 12 16 C12 18.64 12 21.28 12 24 C5.4 24 -1.2 24 -8 24 C-8 21.03 -8 18.06 -8 15 C-6.68 15 -5.36 15 -4 15 C-4 14.34 -4 13.68 -4 13 C-5.32 13 -6.64 13 -8 13 C-8 10.03 -8 7.06 -8 4 C-5.36 4 -2.72 4 0 4 C0 2.68 0 1.36 0 0 Z " fill="#F5F1E0" transform="translate(134,58)"/>
<path d="M0 0 C6.27 0 12.54 0 19 0 C17.76923077 4.92307692 17.76923077 4.92307692 15 7 C13.33805547 7.35613097 11.671549 7.69208308 10 8 C9.67 8.66 9.34 9.32 9 10 C13.95 8.515 13.95 8.515 19 7 C19 10.63 19 14.26 19 18 C15.7 17.01 12.4 16.02 9 15 C10.62138383 18.24276766 13.75110594 18.68904275 17 20 C17.66 20.33 18.32 20.66 19 21 C19 22.32 19 23.64 19 25 C16.02077407 25.02683987 13.04178705 25.04676037 10.0625 25.0625 C8.78729492 25.07506836 8.78729492 25.07506836 7.48632812 25.08789062 C6.67744141 25.09111328 5.86855469 25.09433594 5.03515625 25.09765625 C4.2862915 25.10289307 3.53742676 25.10812988 2.76586914 25.11352539 C1 25 1 25 0 24 C-0.08726223 22.21928754 -0.10699041 20.4351686 -0.09765625 18.65234375 C-0.09443359 17.57275391 -0.09121094 16.49316406 -0.08789062 15.38085938 C-0.07951172 14.24455078 -0.07113281 13.10824219 -0.0625 11.9375 C-0.05798828 10.79732422 -0.05347656 9.65714844 -0.04882812 8.48242188 C-0.0369976 5.65492582 -0.0190615 2.82745655 0 0 Z " fill="#7A7A79" transform="translate(111,145)"/>
<path d="M0 0 C2.64 0 5.28 0 8 0 C8 3.3 8 6.6 8 10 C8.66 10 9.32 10 10 10 C10 6.7 10 3.4 10 0 C12.64 0 15.28 0 18 0 C19.60725635 3.21451269 19.05748185 6.43612536 19 10 C18.01 10.33 17.02 10.66 16 11 C16.99 12.485 16.99 12.485 18 14 C18.1953125 16.69921875 18.1953125 16.69921875 18.125 19.6875 C18.10695312 20.68136719 18.08890625 21.67523438 18.0703125 22.69921875 C18.04710937 23.45847656 18.02390625 24.21773437 18 25 C15.36 25 12.72 25 10 25 C10 21.7 10 18.4 10 15 C9.34 15 8.68 15 8 15 C8 18.3 8 21.6 8 25 C5.36 25 2.72 25 0 25 C-0.027193 23.41676312 -0.04648306 21.83338938 -0.0625 20.25 C-0.07410156 19.36828125 -0.08570313 18.4865625 -0.09765625 17.578125 C-0.00823493 15.21740212 0.43126034 13.27495864 1 11 C0.67 10.67 0.34 10.34 0 10 C-0.07205511 8.31391034 -0.08386068 6.62499341 -0.0625 4.9375 C-0.05347656 4.01839844 -0.04445312 3.09929687 -0.03515625 2.15234375 C-0.02355469 1.44207031 -0.01195312 0.73179687 0 0 Z " fill="#7E7E7D" transform="translate(166,145)"/>
<path d="M0 0 C4.29 0 8.58 0 13 0 C11.51799926 3.70500184 10.091496 6.67262 8 10 C8.99 10 9.98 10 11 10 C11.37125 8.9171875 11.37125 8.9171875 11.75 7.8125 C13.12269592 4.72393418 14.72353296 2.48988582 17 0 C17.66 0 18.32 0 19 0 C19 3.3 19 6.6 19 10 C18.01 10.33 17.02 10.66 16 11 C16 11.66 16 12.32 16 13 C16.99 13.33 17.98 13.66 19 14 C19 17.3 19 20.6 19 24 C15 23 15 23 12.75 20.0625 C11 17 11 17 11 15 C10.01 15 9.02 15 8 15 C8.3609375 15.55429688 8.721875 16.10859375 9.09375 16.6796875 C9.5578125 17.40414062 10.021875 18.12859375 10.5 18.875 C10.9640625 19.59429687 11.428125 20.31359375 11.90625 21.0546875 C13 23 13 23 13 25 C8.71 25 4.42 25 0 25 C0 16.75 0 8.5 0 0 Z " fill="#767676" transform="translate(47,145)"/>
<path d="M0 0 C6.27 0 12.54 0 19 0 C19.09765625 9.27734375 19.09765625 9.27734375 19 12 C18 13 18 13 15.71484375 13.09765625 C14.34005859 13.08025391 14.34005859 13.08025391 12.9375 13.0625 C12.01839844 13.05347656 11.09929687 13.04445312 10.15234375 13.03515625 C9.44207031 13.02355469 8.73179687 13.01195312 8 13 C8.20496094 13.61488281 8.40992188 14.22976562 8.62109375 14.86328125 C9.74739583 18.2421875 10.87369792 21.62109375 12 25 C10.18757948 25.02687279 8.37504767 25.04633715 6.5625 25.0625 C5.55316406 25.07410156 4.54382813 25.08570313 3.50390625 25.09765625 C1 25 1 25 0 24 C-0.08726223 22.21928754 -0.10699041 20.4351686 -0.09765625 18.65234375 C-0.09443359 17.57275391 -0.09121094 16.49316406 -0.08789062 15.38085938 C-0.07951172 14.24455078 -0.07113281 13.10824219 -0.0625 11.9375 C-0.05798828 10.79732422 -0.05347656 9.65714844 -0.04882812 8.48242188 C-0.0369976 5.65492582 -0.0190615 2.82745655 0 0 Z " fill="#818180" transform="translate(132,145)"/>
<path d="M0 0 C2.97 0 5.94 0 9 0 C9 8.25 9 16.5 9 25 C6.03 25 3.06 25 0 25 C0 16.75 0 8.5 0 0 Z " fill="#797979" transform="translate(154,145)"/>
<path d="M0 0 C2.64 0 5.28 0 8 0 C8 1.32 8 2.64 8 4 C8.99 4 9.98 4 11 4 C11 2.68 11 1.36 11 0 C17.15234375 -0.09765625 17.15234375 -0.09765625 19 0 C20 1 20 1 20.0625 4.5625 C20.041875 5.696875 20.02125 6.83125 20 8 C21.32 8.33 22.64 8.66 24 9 C23.67 10.32 23.34 11.64 23 13 C22.01 13 21.02 13 20 13 C20.020625 14.134375 20.04125 15.26875 20.0625 16.4375 C20 20 20 20 19 21 C16.66702567 21.04092937 14.33294775 21.04241723 12 21 C12 21.99 12 22.98 12 24 C10.35 24 8.7 24 7 24 C7 23.01 7 22.02 7 21 C4.69 21 2.38 21 0 21 C0 14.07 0 7.14 0 0 Z M1 2 C1 7.61 1 13.22 1 19 C3.31 19.33 5.62 19.66 8 20 C8.33 20.99 8.66 21.98 9 23 C9.66 23 10.32 23 11 23 C11 22.01 11 21.02 11 20 C14.465 19.505 14.465 19.505 18 19 C18.33 16.69 18.66 14.38 19 12 C19.99 11.67 20.98 11.34 22 11 C22 10.34 22 9.68 22 9 C21.01 9 20.02 9 19 9 C18.67 6.69 18.34 4.38 18 2 C15.58380177 1.74969023 15.58380177 1.74969023 13 2 C12.01 3.485 12.01 3.485 11 5 C10.01 5 9.02 5 8 5 C7.67 4.01 7.34 3.02 7 2 C5.02 2 3.04 2 1 2 Z " fill="#92918E" transform="translate(92,74)"/>
<path d="M0 0 C8.91 0 17.82 0 27 0 C27.66 1.65 28.32 3.3 29 5 C18.77 5 8.54 5 -2 5 C-1.34 3.35 -0.68 1.7 0 0 Z " fill="#EEEADA" transform="translate(97,108)"/>
<path d="M0 0 C1.65 0.33 3.3 0.66 5 1 C5 1.99 5 2.98 5 4 C7.31 4 9.62 4 12 4 C12 6.64 12 9.28 12 12 C13.32 12 14.64 12 16 12 C16 13.32 16 14.64 16 16 C14.68 16 13.36 16 12 16 C12 18.64 12 21.28 12 24 C5.4 24 -1.2 24 -8 24 C-8 21.03 -8 18.06 -8 15 C-6.68 15 -5.36 15 -4 15 C-4 14.34 -4 13.68 -4 13 C-5.32 13 -6.64 13 -8 13 C-8 10.03 -8 7.06 -8 4 C-5.36 4 -2.72 4 0 4 C0 2.68 0 1.36 0 0 Z M1 2 C1 2.99 1 3.98 1 5 C-1.31 5 -3.62 5 -6 5 C-6.2502157 7.91634129 -6.2502157 7.91634129 -6 11 C-4.515 11.99 -4.515 11.99 -3 13 C-3 14.32 -3 15.64 -3 17 C-3.99 17 -4.98 17 -6 17 C-6 18.65 -6 20.3 -6 22 C-0.39 22 5.22 22 11 22 C11 19.69 11 17.38 11 15 C12.32 15 13.64 15 15 15 C15 14.34 15 13.68 15 13 C13.68 13 12.36 13 11 13 C11 10.36 11 7.72 11 5 C8.36 5 5.72 5 3 5 C3 4.01 3 3.02 3 2 C2.34 2 1.68 2 1 2 Z " fill="#7D7D7D" transform="translate(134,58)"/>
<path d="M0 0 C1.65 0 3.3 0 5 0 C4.5 1.875 4.5 1.875 3 4 C0.34822355 4.98494554 -2.20547307 5.45912382 -5 6 C-5 6.66 -5 7.32 -5 8 C-5.99 8.33 -6.98 8.66 -8 9 C-8.33 9.66 -8.66 10.32 -9 11 C-9.66 11 -10.32 11 -11 11 C-11 9.68 -11 8.36 -11 7 C-11.66 6.67 -12.32 6.34 -13 6 C-13 4.35 -13 2.7 -13 1 C-9.37 1 -5.74 1 -2 1 C-2 1.66 -2 2.32 -2 3 C-1.34 3 -0.68 3 0 3 C0 2.01 0 1.02 0 0 Z " fill="#DBD8C9" transform="translate(130,204)"/>
<path d="M0 0 C0.33 0 0.66 0 1 0 C1.33 11.88 1.66 23.76 2 36 C5.96 36.33 9.92 36.66 14 37 C13.505 39.475 13.505 39.475 13 42 C12.34 42 11.68 42 11 42 C11 41.34 11 40.68 11 40 C10.38511719 39.96261719 9.77023438 39.92523438 9.13671875 39.88671875 C8.32847656 39.82097656 7.52023438 39.75523438 6.6875 39.6875 C5.48673828 39.60048828 5.48673828 39.60048828 4.26171875 39.51171875 C1.40721132 38.86588028 0.66775723 38.42039839 -1 36 C-1.19167403 33.19147706 -1.20948674 30.62725971 -1.07421875 27.83203125 C-1.04777786 27.03721848 -1.02133698 26.2424057 -0.99409485 25.42350769 C-0.90634586 22.88573961 -0.79719492 20.34940502 -0.6875 17.8125 C-0.62423955 16.09184819 -0.56237354 14.3711445 -0.50195312 12.65039062 C-0.3508078 8.43282139 -0.18046409 4.21641237 0 0 Z " fill="#A6A59E" transform="translate(83,69)"/>
<path d="M0 0 C1.32 0.33 2.64 0.66 4 1 C3.7834375 1.84304687 3.566875 2.68609375 3.34375 3.5546875 C3.0653125 4.65039062 2.786875 5.74609375 2.5 6.875 C2.2215625 7.96554688 1.943125 9.05609375 1.65625 10.1796875 C0.92445582 12.84205069 0.92445582 12.84205069 1 15 C0.34 15 -0.32 15 -1 15 C-1 14.34 -1 13.68 -1 13 C-1.99 13.33 -2.98 13.66 -4 14 C-4 13.34 -4 12.68 -4 12 C-3.34 11.67 -2.68 11.34 -2 11 C-3.32 10.67 -4.64 10.34 -6 10 C-5.67 8.35 -5.34 6.7 -5 5 C-3.68 5 -2.36 5 -1 5 C-0.67 3.35 -0.34 1.7 0 0 Z " fill="#D0CDC0" transform="translate(28,79)"/>
<path d="M0 0 C2 5.625 2 5.625 2 9 C0.68 9.33 -0.64 9.66 -2 10 C-1.01 10 -0.02 10 1 10 C1 10.66 1 11.32 1 12 C0.05125 11.814375 -0.8975 11.62875 -1.875 11.4375 C-4.89868793 10.71313368 -4.89868793 10.71313368 -7 12 C-6.34 8.37 -5.68 4.74 -5 1 C-2 0 -2 0 0 0 Z " fill="#D2CFC1" transform="translate(25,94)"/>
<path d="M0 0 C0.33 0 0.66 0 1 0 C1 1.65 1 3.3 1 5 C2.32 5.66 3.64 6.32 5 7 C4.67 8.32 4.34 9.64 4 11 C3.01 11 2.02 11 1 11 C1 12.65 1 14.3 1 16 C6.61 16 12.22 16 18 16 C18 16.33 18 16.66 18 17 C8.595 17.495 8.595 17.495 -1 18 C-1 15.03 -1 12.06 -1 9 C0.32 9 1.64 9 3 9 C3 8.34 3 7.68 3 7 C1.68 7 0.36 7 -1 7 C-0.67 4.69 -0.34 2.38 0 0 Z " fill="#ABA9A3" transform="translate(127,64)"/>
<path d="M0 0 C-0.165 0.5775 -0.33 1.155 -0.5 1.75 C-1.14462031 4.26664369 -1.14462031 4.26664369 -1 8 C-1.33 8.99 -1.66 9.98 -2 11 C-2.66 11 -3.32 11 -4 11 C-4 10.01 -4 9.02 -4 8 C-4.66 8 -5.32 8 -6 8 C-6.66 5.36 -7.32 2.72 -8 0 C-4.71023192 -1.09658936 -3.28696233 -0.79953138 0 0 Z " fill="#D7D4C8" transform="translate(203,70)"/>
<path d="M0 0 C2.63782555 2.47196362 3.52826608 4.05125299 4.25 7.625 C4.50523437 8.81996094 4.50523437 8.81996094 4.765625 10.0390625 C4.88164062 11.00972656 4.88164062 11.00972656 5 12 C4.67 12.33 4.34 12.66 4 13 C3.76712992 14.68183948 3.58735834 16.3712416 3.4375 18.0625 C3.31181641 19.44115234 3.31181641 19.44115234 3.18359375 20.84765625 C3.12300781 21.55792969 3.06242188 22.26820313 3 23 C1.00732416 21.13807717 0.07153231 19.61007042 -0.24755859 16.88867188 C-0.29513603 14.33688446 -0.26098224 11.80115255 -0.1875 9.25 C-0.17396484 8.36183594 -0.16042969 7.47367188 -0.14648438 6.55859375 C-0.11121309 4.37177422 -0.06192752 2.18620034 0 0 Z " fill="#DFDCCD" transform="translate(163,147)"/>
<path d="M0 0 C2.31 0.33 4.62 0.66 7 1 C6.875 3.3125 6.875 3.3125 6 6 C3.05402394 7.96398404 1.19964545 9.15784809 -2.375 8.6875 C-2.91125 8.460625 -3.4475 8.23375 -4 8 C-4 7.34 -4 6.68 -4 6 C-3.34 6 -2.68 6 -2 6 C-2 5.01 -2 4.02 -2 3 C-1.34 3 -0.68 3 0 3 C0 2.01 0 1.02 0 0 Z " fill="#D9D7CA" transform="translate(177,39)"/>
<path d="M0 0 C1.32 0.33 2.64 0.66 4 1 C3.34 3.31 2.68 5.62 2 8 C1.34 8 0.68 8 0 8 C0 8.99 0 9.98 0 11 C-1.65 10.67 -3.3 10.34 -5 10 C-3.84414715 6.08788267 -2.64465038 3.1254959 0 0 Z " fill="#D0CEC1" transform="translate(35,65)"/>
<path d="M0 0 C0 1.32 0 2.64 0 4 C-1.98 4.99 -1.98 4.99 -4 6 C-4.33 5.67 -4.66 5.34 -5 5 C-5.66 6.65 -6.32 8.3 -7 10 C-8.17571451 6.32589215 -8.07366746 2.83070817 -8 -1 C-4.59745511 -2.2151946 -3.06748874 -1.86240388 0 0 Z " fill="#D4D1C3" transform="translate(26,112)"/>
<path d="M0 0 C0 0.66 0 1.32 0 2 C0.66 2 1.32 2 2 2 C2 2.66 2 3.32 2 4 C2.66 4 3.32 4 4 4 C3.67 4.99 3.34 5.98 3 7 C0.9375 7.6875 0.9375 7.6875 -1 8 C-1 7.34 -1 6.68 -1 6 C-1.66 6 -2.32 6 -3 6 C-3 5.01 -3 4.02 -3 3 C-3.66 3 -4.32 3 -5 3 C-5 2.34 -5 1.68 -5 1 C-2 0 -2 0 0 0 Z " fill="#CBC8BC" transform="translate(52,177)"/>
<path d="M0 0 C0.99 0.33 1.98 0.66 3 1 C2.67 3.64 2.34 6.28 2 9 C1.34 9 0.68 9 0 9 C0 7.68 0 6.36 0 5 C-0.66 4.67 -1.32 4.34 -2 4 C-2 3.34 -2 2.68 -2 2 C-1.34 2 -0.68 2 0 2 C0 1.34 0 0.68 0 0 Z M3 2 C3.66 2 4.32 2 5 2 C5 2.66 5 3.32 5 4 C5.99 4.33 6.98 4.66 8 5 C6.02 5.99 6.02 5.99 4 7 C3.67 5.35 3.34 3.7 3 2 Z " fill="#C0BEB3" transform="translate(61,187)"/>
<path d="M0 0 C3.875 0.875 3.875 0.875 5 2 C6.65816784 2.68753301 8.32459336 3.35561283 10 4 C10 4.66 10 5.32 10 6 C9.34 6 8.68 6 8 6 C8 6.66 8 7.32 8 8 C7.34 8 6.68 8 6 8 C6 7.34 6 6.68 6 6 C4.35 5.67 2.7 5.34 1 5 C0.67 3.35 0.34 1.7 0 0 Z " fill="#BCBAAF" transform="translate(72,194)"/>
<path d="M0 0 C0.66 0 1.32 0 2 0 C2.33 2.64 2.66 5.28 3 8 C2.01 8.495 2.01 8.495 1 9 C1 9.66 1 10.32 1 11 C0.34 11 -0.32 11 -1 11 C-2.25 3.375 -2.25 3.375 0 0 Z " fill="#C6C4B8" transform="translate(25,129)"/>
<path d="M0 0 C1.65 0.33 3.3 0.66 5 1 C5 1.66 5 2.32 5 3 C4.01 3.33 3.02 3.66 2 4 C3.32 4 4.64 4 6 4 C6 4.66 6 5.32 6 6 C5.01 6.33 4.02 6.66 3 7 C3 7.66 3 8.32 3 9 C2.01 9 1.02 9 0 9 C-0.33 9.66 -0.66 10.32 -1 11 C-0.67 7.37 -0.34 3.74 0 0 Z " fill="#C8C6B9" transform="translate(21,122)"/>
<path d="M0 0 C2.64 0.66 5.28 1.32 8 2 C8 2.66 8 3.32 8 4 C7.34 4 6.68 4 6 4 C6 4.66 6 5.32 6 6 C4.35 6 2.7 6 1 6 C0.67 4.02 0.34 2.04 0 0 Z " fill="#C9C6BA" transform="translate(95,202)"/>
<path d="M0 0 C0.66 0 1.32 0 2 0 C2 0.66 2 1.32 2 2 C2.66 2.33 3.32 2.66 4 3 C3.34 3.66 2.68 4.32 2 5 C2.33 5.66 2.66 6.32 3 7 C1.02 7.99 1.02 7.99 -1 9 C-1 8.34 -1 7.68 -1 7 C-1.66 7 -2.32 7 -3 7 C-2.67 5.35 -2.34 3.7 -2 2 C-1.34 2 -0.68 2 0 2 C0 1.34 0 0.68 0 0 Z " fill="#CECBBF" transform="translate(197,154)"/>
<path d="M0 0 C1.65 0.33 3.3 0.66 5 1 C4.67 1.99 4.34 2.98 4 4 C3.01 3.34 2.02 2.68 1 2 C1 2.99 1 3.98 1 5 C-1.31 5.33 -3.62 5.66 -6 6 C-6.33 7.65 -6.66 9.3 -7 11 C-7.33 11 -7.66 11 -8 11 C-8 8.69 -8 6.38 -8 4 C-5.36 4 -2.72 4 0 4 C0 2.68 0 1.36 0 0 Z " fill="#8C8C89" transform="translate(134,58)"/>
<path d="M0 0 C1.65 0 3.3 0 5 0 C4.4375 1.875 4.4375 1.875 3 4 C-0.625 5.25 -0.625 5.25 -4 6 C-4 4.35 -4 2.7 -4 1 C-3.34 1 -2.68 1 -2 1 C-2 1.66 -2 2.32 -2 3 C-1.34 3 -0.68 3 0 3 C0 2.01 0 1.02 0 0 Z " fill="#C8C5B9" transform="translate(130,204)"/>
<path d="M0 0 C0.66 0 1.32 0 2 0 C2 0.66 2 1.32 2 2 C2.66 2 3.32 2 4 2 C4 2.66 4 3.32 4 4 C3.01 4 2.02 4 1 4 C1 4.66 1 5.32 1 6 C-1 6 -3 6 -5 6 C-5 5.34 -5 4.68 -5 4 C-4.34 4 -3.68 4 -3 4 C-3 3.34 -3 2.68 -3 2 C-2.01 2 -1.02 2 0 2 C0 1.34 0 0.68 0 0 Z " fill="#C3C0B5" transform="translate(46,172)"/>
<path d="M0 0 C0.66 0 1.32 0 2 0 C2 0.66 2 1.32 2 2 C2.66 2 3.32 2 4 2 C4 2.66 4 3.32 4 4 C3.01 4.33 2.02 4.66 1 5 C0.67 5.99 0.34 6.98 0 8 C-1.32 7.34 -2.64 6.68 -4 6 C-2.7260411 3.96166576 -1.38938077 1.96147874 0 0 Z " fill="#CCCABF" transform="translate(184,46)"/>
<path d="M0 0 C0.66 0.33 1.32 0.66 2 1 C2 2.32 2 3.64 2 5 C0.68 5.33 -0.64 5.66 -2 6 C-2 5.34 -2 4.68 -2 4 C-2.66 4 -3.32 4 -4 4 C-4 3.34 -4 2.68 -4 2 C-2.125 0.9375 -2.125 0.9375 0 0 Z " fill="#CDCBBF" transform="translate(75,29)"/>
<path d="M0 0 C2.31 0.33 4.62 0.66 7 1 C6.67 2.65 6.34 4.3 6 6 C4.35 5.67 2.7 5.34 1 5 C0.67 3.35 0.34 1.7 0 0 Z " fill="#C8C5BB" transform="translate(127,21)"/>
<path d="M0 0 C0.66 0 1.32 0 2 0 C2 1.65 2 3.3 2 5 C2.66 5 3.32 5 4 5 C4 5.66 4 6.32 4 7 C2.35 7.33 0.7 7.66 -1 8 C-1 7.34 -1 6.68 -1 6 C-1.66 6 -2.32 6 -3 6 C-3 5.34 -3 4.68 -3 4 C-2.01 3.67 -1.02 3.34 0 3 C0 2.01 0 1.02 0 0 Z " fill="#C8C6B9" transform="translate(31,147)"/>
<path d="M0 0 C1.32 0.33 2.64 0.66 4 1 C3.67 2.65 3.34 4.3 3 6 C0.69 5.34 -1.62 4.68 -4 4 C-4 3.34 -4 2.68 -4 2 C-2.68 2.33 -1.36 2.66 0 3 C0 2.01 0 1.02 0 0 Z " fill="#C5C4B9" transform="translate(151,27)"/>
<path d="M0 0 C6.75 0.75 6.75 0.75 9 3 C8.34 3.66 7.68 4.32 7 5 C4.69 4.01 2.38 3.02 0 2 C0 1.34 0 0.68 0 0 Z " fill="#E0DDCE" transform="translate(120,160)"/>
<path d="M0 0 C0.99 0 1.98 0 3 0 C3.33 1.65 3.66 3.3 4 5 C3.01 5 2.02 5 1 5 C0.67 5.99 0.34 6.98 0 8 C-0.33 7.67 -0.66 7.34 -1 7 C-0.71269945 4.66055264 -0.38063221 2.3260857 0 0 Z " fill="#C9C7BA" transform="translate(28,141)"/>
<path d="M0 0 C2.97 0.495 2.97 0.495 6 1 C6 1.66 6 2.32 6 3 C5.01 3 4.02 3 3 3 C3 3.99 3 4.98 3 6 C2.34 6 1.68 6 1 6 C1 5.34 1 4.68 1 4 C0.34 4 -0.32 4 -1 4 C-0.67 2.68 -0.34 1.36 0 0 Z " fill="#C5C3B9" transform="translate(156,30)"/>
<path d="M0 0 C1 3 1 3 -0.25 5.6875 C-0.8275 6.450625 -1.405 7.21375 -2 8 C-2.99 8 -3.98 8 -5 8 C-3.8141763 4.62496331 -2.72426311 2.35277269 0 0 Z " fill="#E8E4D4" transform="translate(60,147)"/>
<path d="M0 0 C0.66 0 1.32 0 2 0 C2.33 1.65 2.66 3.3 3 5 C2.01 5 1.02 5 0 5 C-0.33 5.66 -0.66 6.32 -1 7 C-1.66 7 -2.32 7 -3 7 C-1.125 1.125 -1.125 1.125 0 0 Z " fill="#D5D2C4" transform="translate(70,196)"/>
<path d="M0 0 C1.65 0.33 3.3 0.66 5 1 C5 1.66 5 2.32 5 3 C4.34 3 3.68 3 3 3 C3 3.66 3 4.32 3 5 C1.35 5.33 -0.3 5.66 -2 6 C-2 5.34 -2 4.68 -2 4 C-1.01 4 -0.02 4 1 4 C0.67 2.68 0.34 1.36 0 0 Z " fill="#CECBBF" transform="translate(164,191)"/>
<path d="M0 0 C0.99 0 1.98 0 3 0 C3.99 2.31 4.98 4.62 6 7 C5.01 7 4.02 7 3 7 C0 2.77777778 0 2.77777778 0 0 Z " fill="#E6E3D2" transform="translate(55,160)"/>
<path d="M0 0 C-0.33 2.64 -0.66 5.28 -1 8 C-1.66 8 -2.32 8 -3 8 C-3.66 5.69 -4.32 3.38 -5 1 C-2 0 -2 0 0 0 Z " fill="#CDCBC0" transform="translate(206,84)"/>
<path d="M0 0 C0.66 0 1.32 0 2 0 C2.66 1.98 3.32 3.96 4 6 C3.01 6 2.02 6 1 6 C0.01 6.495 0.01 6.495 -1 7 C-0.67 4.69 -0.34 2.38 0 0 Z " fill="#B8B6AC" transform="translate(23,94)"/>
<path d="M0 0 C0.66 0 1.32 0 2 0 C2.33 1.65 2.66 3.3 3 5 C1.35 5 -0.3 5 -2 5 C-1.125 1.125 -1.125 1.125 0 0 Z " fill="#CAC8BC" transform="translate(86,200)"/>
<path d="M0 0 C2.475 0.495 2.475 0.495 5 1 C4.67 2.32 4.34 3.64 4 5 C3.34 5 2.68 5 2 5 C2 4.34 2 3.68 2 3 C1.34 3 0.68 3 0 3 C0 2.01 0 1.02 0 0 Z " fill="#D3D0C2" transform="translate(136,202)"/>
<path d="M0 0 C0.66 0.33 1.32 0.66 2 1 C2 2.32 2 3.64 2 5 C0.02 5.99 0.02 5.99 -2 7 C-2 5.35 -2 3.7 -2 2 C-1.34 2 -0.68 2 0 2 C0 1.34 0 0.68 0 0 Z " fill="#B5B3AA" transform="translate(24,111)"/>
</svg>
